<svg xmlns="http://www.w3.org/2000/svg" width="260" height="260" viewBox="0 0 260 260" version="1.1"><path d="M 0.103 58.750 C 0.192 110.041, 0.368 116.548, 1.490 110 C 6.547 80.471, 19.022 56.709, 40.110 36.434 C 60.079 17.234, 81.967 6.291, 110 1.490 C 116.548 0.368, 110.041 0.192, 58.750 0.103 L 0 0 0.103 58.750 M 150 1.490 C 178.033 6.291, 199.921 17.234, 219.890 36.434 C 240.978 56.709, 253.453 80.471, 258.510 110 C 259.632 116.548, 259.808 110.041, 259.897 58.750 L 260 0 201.250 0.103 C 149.959 0.192, 143.452 0.368, 150 1.490 M 120 8.041 C 110.219 8.804, 92.414 12.521, 91.506 13.991 C 90.773 15.176, 94.432 23.314, 98.084 28.622 C 99.797 31.111, 106.397 39.077, 112.751 46.324 C 127.504 63.148, 137.950 77.122, 142.146 85.646 C 148.680 98.916, 146.817 111.568, 136.701 122.636 C 132.401 127.341, 131.956 128.154, 134.022 127.527 C 143.451 124.662, 152.897 116.651, 156.737 108.263 C 159.017 103.282, 159.216 101.887, 158.684 94.608 C 157.835 83.009, 154.991 73.048, 146.520 52 C 138.442 31.931, 137.532 28.688, 136.486 16.250 C 135.893 9.203, 135.527 8, 133.978 8 C 132.980 8, 131.564 7.843, 130.832 7.650 C 130.099 7.458, 125.225 7.634, 120 8.041 M 181.144 25.345 C 178.333 32.857, 177.261 39.988, 176.006 59.500 C 173.174 103.564, 168.215 118.163, 153.500 125.760 C 149.690 127.727, 146.541 128.449, 140.268 128.795 C 135.740 129.045, 132.272 129.631, 132.560 130.097 C 133.624 131.818, 146.396 135, 152.239 135 C 160.740 135, 165.454 133.297, 171.168 128.159 C 179.910 120.299, 186.536 108.935, 197.036 83.792 C 203.947 67.245, 206.003 63.650, 213.992 54.156 L 220.172 46.812 217.836 44.292 C 211.420 37.371, 187.102 20.004, 183.822 20.001 C 183.449 20, 182.244 22.405, 181.144 25.345 M 42.078 44.605 C 33.261 54.252, 21.012 71.466, 21.003 74.224 C 20.999 75.347, 26.968 78.168, 32.500 79.658 C 35.250 80.399, 46.500 81.673, 57.500 82.490 C 106.736 86.144, 119.704 90.428, 126.970 105.438 C 129.475 110.612, 131.367 120.413, 130.601 124.243 C 129.587 129.313, 131.773 126.193, 134.069 119.292 C 138.827 104.994, 135.994 92.349, 126.203 84.187 C 116.101 75.766, 106.808 70.797, 81.869 60.484 C 68.528 54.966, 63.900 52.199, 54.377 44.048 C 51.145 41.282, 48.208 39.014, 47.850 39.009 C 47.493 39.004, 44.895 41.522, 42.078 44.605 M 235.943 93.557 C 232.336 95.481, 224.073 101.655, 217.580 107.278 C 190.422 130.793, 180.491 138.015, 168.828 142.725 C 157.699 147.221, 146.355 144.620, 135.835 135.161 C 131.440 131.210, 130.833 130.914, 131.478 133.036 C 132.897 137.706, 137.434 145.206, 141.171 149.057 C 153.732 162, 168.429 160.894, 210.718 143.819 C 226.941 137.269, 228.628 136.801, 239.906 135.725 C 249.927 134.769, 251.951 134.295, 252.338 132.817 C 253.608 127.959, 250.265 103.647, 246.898 93.250 C 245.563 89.131, 244.165 89.170, 235.943 93.557 M 84.673 101.628 C 76.901 103.295, 61.734 108.612, 45.174 115.474 C 34.152 120.041, 28.620 121.330, 14.808 122.554 C 8.165 123.142, 8.114 123.170, 7.808 126.323 C 6.697 137.784, 11.589 168, 14.555 168 C 16.840 168, 26.217 163.459, 30.500 160.279 C 32.700 158.646, 41.925 150.920, 51 143.111 C 77.994 119.882, 89.717 112.999, 102.288 113.001 C 107.079 113.001, 109.873 113.661, 114.500 115.884 C 120.486 118.761, 128.812 125.522, 127.716 126.617 C 127.398 126.935, 124.744 126.310, 121.819 125.228 C 95.709 115.572, 82.059 127.218, 61.986 176.280 C 56.197 190.431, 54.299 193.600, 44.976 204.685 L 38.583 212.286 44.542 217.833 C 57.124 229.545, 73.901 240.499, 76.015 238.385 C 76.609 237.791, 78.222 234.062, 79.601 230.097 C 81.634 224.251, 82.386 219.068, 83.577 202.694 C 86.801 158.378, 90.421 144.234, 100.766 135.540 C 105.290 131.738, 113.154 128.955, 121.300 128.272 C 125.389 127.929, 128.373 127.190, 128.657 126.452 C 128.919 125.768, 127.741 122.448, 126.038 119.075 C 119.418 105.962, 110.706 99.941, 98.554 100.082 C 94.674 100.126, 88.428 100.822, 84.673 101.628 M 119.952 132.750 C 112.309 136.605, 104.753 144.341, 102.676 150.437 C 98.645 162.267, 101.529 176.010, 115.087 209.575 C 121.677 225.888, 122.037 227.213, 123.171 239.243 C 124.318 251.414, 124.440 251.851, 126.813 252.305 C 133.252 253.536, 163.309 249.165, 168.541 246.237 C 169.630 245.628, 169.425 244.339, 167.478 239.548 C 164.304 231.737, 160.188 225.978, 147.434 211.500 C 133.374 195.540, 122.769 181.435, 118.239 172.671 C 114.824 166.064, 114.531 164.832, 114.516 157 C 114.502 149.433, 114.825 147.913, 117.462 143.152 C 119.092 140.210, 122.129 136.048, 124.211 133.902 C 128.674 129.303, 127.445 128.970, 119.952 132.750 M 127.005 135.256 C 125.969 137.597, 124.664 142.360, 124.103 145.841 C 120.798 166.361, 132.189 177.738, 173.500 195.181 C 193.118 203.465, 194.981 204.529, 205.462 213.435 C 212.067 219.049, 213.475 219.854, 214.799 218.773 C 221.992 212.902, 241.035 185.483, 239.568 183.110 C 238.703 181.710, 228.395 177.997, 222.500 176.962 C 219.750 176.480, 210.525 175.611, 202 175.033 C 152.838 171.698, 140.008 167.222, 132.498 150.788 C 130.586 146.604, 129.836 143.193, 129.694 138.041 C 129.587 134.173, 129.362 131.006, 129.194 131.004 C 129.025 131.002, 128.040 132.915, 127.005 135.256 M 0.103 201.250 L 0 260 58.750 259.897 C 110.041 259.808, 116.548 259.632, 110 258.510 C 80.471 253.453, 56.709 240.978, 36.434 219.890 C 17.234 199.921, 6.291 178.033, 1.490 150 C 0.368 143.452, 0.192 149.959, 0.103 201.250 M 258.596 148.855 C 256.906 163.794, 249.354 184.302, 239.851 199.760 C 232.438 211.818, 211.818 232.438, 199.760 239.851 C 184.524 249.217, 167.664 255.546, 150 258.529 C 143.500 259.626, 150.334 259.809, 201.250 259.897 L 260 260 260 201.500 C 260 169.325, 259.833 143, 259.629 143 C 259.425 143, 258.960 145.635, 258.596 148.855" stroke="none" fill="#f7f0f0" fill-rule="evenodd"/><path d="M 110 1.427 C 79.657 6.878, 56.554 19.102, 35.970 40.594 C 18.650 58.679, 7.789 79.466, 2.321 105 C -0.221 116.869, -0.221 143.131, 2.321 155 C 7.892 181.015, 18.736 201.523, 36.771 220.154 C 60.791 244.969, 90.052 258.138, 124.605 259.686 C 151.179 260.876, 176.379 254.225, 199.760 239.851 C 211.818 232.438, 232.438 211.818, 239.851 199.760 C 249.360 184.292, 256.906 163.794, 258.599 148.832 C 258.964 145.600, 259.654 142.714, 260.132 142.419 C 260.609 142.123, 261 136.032, 261 128.882 C 261 121.732, 260.611 116.123, 260.135 116.417 C 259.659 116.711, 258.969 114.389, 258.600 111.258 C 255.440 84.363, 241.026 56.676, 219.406 35.970 C 201.618 18.934, 180.823 7.959, 156 2.506 C 145.800 0.265, 119.852 -0.343, 110 1.427 M 120 8.041 C 110.219 8.804, 92.414 12.521, 91.506 13.991 C 90.773 15.176, 94.432 23.314, 98.084 28.622 C 99.797 31.111, 106.397 39.077, 112.751 46.324 C 127.504 63.148, 137.950 77.122, 142.146 85.646 C 148.680 98.916, 146.817 111.568, 136.701 122.636 C 132.401 127.341, 131.956 128.154, 134.022 127.527 C 143.451 124.662, 152.897 116.651, 156.737 108.263 C 159.017 103.282, 159.216 101.887, 158.684 94.608 C 157.835 83.009, 154.991 73.048, 146.520 52 C 138.442 31.931, 137.532 28.688, 136.486 16.250 C 135.893 9.203, 135.527 8, 133.978 8 C 132.980 8, 131.564 7.843, 130.832 7.650 C 130.099 7.458, 125.225 7.634, 120 8.041 M 181.144 25.345 C 178.333 32.857, 177.261 39.988, 176.006 59.500 C 173.174 103.564, 168.215 118.163, 153.500 125.760 C 149.690 127.727, 146.541 128.449, 140.268 128.795 C 135.740 129.045, 132.272 129.631, 132.560 130.097 C 133.624 131.818, 146.396 135, 152.239 135 C 160.740 135, 165.454 133.297, 171.168 128.159 C 179.910 120.299, 186.536 108.935, 197.036 83.792 C 203.947 67.245, 206.003 63.650, 213.992 54.156 L 220.172 46.812 217.836 44.292 C 211.420 37.371, 187.102 20.004, 183.822 20.001 C 183.449 20, 182.244 22.405, 181.144 25.345 M 42.078 44.605 C 33.261 54.252, 21.012 71.466, 21.003 74.224 C 20.999 75.347, 26.968 78.168, 32.500 79.658 C 35.250 80.399, 46.500 81.673, 57.500 82.490 C 106.736 86.144, 119.704 90.428, 126.970 105.438 C 129.475 110.612, 131.367 120.413, 130.601 124.243 C 129.587 129.313, 131.773 126.193, 134.069 119.292 C 138.827 104.994, 135.994 92.349, 126.203 84.187 C 116.101 75.766, 106.808 70.797, 81.869 60.484 C 68.528 54.966, 63.900 52.199, 54.377 44.048 C 51.145 41.282, 48.208 39.014, 47.850 39.009 C 47.493 39.004, 44.895 41.522, 42.078 44.605 M 235.943 93.557 C 232.336 95.481, 224.073 101.655, 217.580 107.278 C 190.422 130.793, 180.491 138.015, 168.828 142.725 C 157.699 147.221, 146.355 144.620, 135.835 135.161 C 131.440 131.210, 130.833 130.914, 131.478 133.036 C 132.897 137.706, 137.434 145.206, 141.171 149.057 C 153.732 162, 168.429 160.894, 210.718 143.819 C 226.941 137.269, 228.628 136.801, 239.906 135.725 C 249.927 134.769, 251.951 134.295, 252.338 132.817 C 253.608 127.959, 250.265 103.647, 246.898 93.250 C 245.563 89.131, 244.165 89.170, 235.943 93.557 M 84.673 101.628 C 76.901 103.295, 61.734 108.612, 45.174 115.474 C 34.152 120.041, 28.620 121.330, 14.808 122.554 C 8.165 123.142, 8.114 123.170, 7.808 126.323 C 6.697 137.784, 11.589 168, 14.555 168 C 16.840 168, 26.217 163.459, 30.500 160.279 C 32.700 158.646, 41.925 150.920, 51 143.111 C 77.994 119.882, 89.717 112.999, 102.288 113.001 C 107.079 113.001, 109.873 113.661, 114.500 115.884 C 120.486 118.761, 128.812 125.522, 127.716 126.617 C 127.398 126.935, 124.744 126.310, 121.819 125.228 C 95.709 115.572, 82.059 127.218, 61.986 176.280 C 56.197 190.431, 54.299 193.600, 44.976 204.685 L 38.583 212.286 44.542 217.833 C 57.124 229.545, 73.901 240.499, 76.015 238.385 C 76.609 237.791, 78.222 234.062, 79.601 230.097 C 81.634 224.251, 82.386 219.068, 83.577 202.694 C 86.801 158.378, 90.421 144.234, 100.766 135.540 C 105.290 131.738, 113.154 128.955, 121.300 128.272 C 125.389 127.929, 128.373 127.190, 128.657 126.452 C 128.919 125.768, 127.741 122.448, 126.038 119.075 C 119.418 105.962, 110.706 99.941, 98.554 100.082 C 94.674 100.126, 88.428 100.822, 84.673 101.628 M 0.392 130 C 0.392 137.425, 0.549 140.463, 0.742 136.750 C 0.934 133.037, 0.934 126.963, 0.742 123.250 C 0.549 119.537, 0.392 122.575, 0.392 130 M 119.952 132.750 C 112.309 136.605, 104.753 144.341, 102.676 150.437 C 98.645 162.267, 101.529 176.010, 115.087 209.575 C 121.677 225.888, 122.037 227.213, 123.171 239.243 C 124.318 251.414, 124.440 251.851, 126.813 252.305 C 133.252 253.536, 163.309 249.165, 168.541 246.237 C 169.630 245.628, 169.425 244.339, 167.478 239.548 C 164.304 231.737, 160.188 225.978, 147.434 211.500 C 133.374 195.540, 122.769 181.435, 118.239 172.671 C 114.824 166.064, 114.531 164.832, 114.516 157 C 114.502 149.433, 114.825 147.913, 117.462 143.152 C 119.092 140.210, 122.129 136.048, 124.211 133.902 C 128.674 129.303, 127.445 128.970, 119.952 132.750 M 127.005 135.256 C 125.969 137.597, 124.664 142.360, 124.103 145.841 C 120.798 166.361, 132.189 177.738, 173.500 195.181 C 193.118 203.465, 194.981 204.529, 205.462 213.435 C 212.067 219.049, 213.475 219.854, 214.799 218.773 C 221.992 212.902, 241.035 185.483, 239.568 183.110 C 238.703 181.710, 228.395 177.997, 222.500 176.962 C 219.750 176.480, 210.525 175.611, 202 175.033 C 152.838 171.698, 140.008 167.222, 132.498 150.788 C 130.586 146.604, 129.836 143.193, 129.694 138.041 C 129.587 134.173, 129.362 131.006, 129.194 131.004 C 129.025 131.002, 128.040 132.915, 127.005 135.256" stroke="none" fill="#f21111" fill-rule="evenodd"/></svg>